# xmcd
#
# Track frame offsets: 
#        150
#        11219
#        22876
#        36308
#        51583
#        64267
#        76959
#        89801
#        102416
#        114860
#        127504
#        139164
#        148696
#        158777
#        170343
#        183311
#
# Disc length: 2630 seconds
#
# Revision: 0
# Processed by: cddbd v1.5.2PL0 Copyright (c) Steve Scherf et al.
# Submitted via: ExactAudioCopy v0.99pb4
#
DISCID=d80a4410
DTITLE=Riley Puckett - Old Time Greats - Volume 2
DYEAR=1986
DGENRE=Western
TTITLE0=The Cat Came Back
TTITLE1=Short Life Of Trouble
TTITLE2=Broken Engagement
TTITLE3=The Wednesday Night Waltz
TTITLE4=Renfro Valley Home
TTITLE5=I Only Want a Buddy
TTITLE6=Puckett's Blues
TTITLE7=Roll Back the Carpet
TTITLE8=Way Out There
TTITLE9=Back On the Texas Plains
TTITLE10=Tie Me To Your Apron Strings Again
TTITLE11=The Preacher and the Bear
TTITLE12=Though You're Not Satisfied With Me
TTITLE13=Put On An Old Pair Of Shoes
TTITLE14=Don't Let Your Deal Go Down
TTITLE15=The Boston Burglar
EXTD=
EXTT0=
EXTT1=
EXTT2=
EXTT3=
EXTT4=
EXTT5=
EXTT6=
EXTT7=
EXTT8=
EXTT9=
EXTT10=
EXTT11=
EXTT12=
EXTT13=
EXTT14=
EXTT15=
PLAYORDER=
